<svg data-v-0dd9719b="" version="1.0" xmlns="http://www.w3.org/2000/svg" xmlns:xlink="http://www.w3.org/1999/xlink" width="100%" height="100%" viewBox="0 0 340.000000 250.000000" preserveAspectRatio="xMidYMid meet" color-interpolation-filters="sRGB" style="margin: auto;"> <rect data-v-0dd9719b="" x="0" y="0" width="100%" height="100%" fill="#fff" fill-opacity="1" class="background"></rect> <rect data-v-0dd9719b="" x="0" y="0" width="100%" height="100%" fill="url(#watermark)" fill-opacity="1" class="watermarklayer"></rect> <g data-v-0dd9719b="" fill="#333" class="icon-text-wrapper icon-svg-group iconsvg" transform="translate(48.16999816894531,94.92873191833496)"><g class="iconsvg-imagesvg" transform="translate(0,0)"><g><rect fill="#333" fill-opacity="0" stroke-width="2" x="0" y="0" width="60" height="60.14253781462065" class="image-rect"></rect> <svg x="0" y="0" width="60" height="60.14253781462065" filtersec="colorsb263189116" class="image-svg-svg primary" style="overflow: visible;"><svg xmlns="http://www.w3.org/2000/svg" viewBox="-0.04888888821005821 -0.002165301004424691 144.82449340820312 145.169189453125"><path d="M0 68.73a46.8 46.8 0 0 1 1-10.21 7.1 7.1 0 0 1 4.53-5.62q47.63-21.78 95.18-43.69a7.31 7.31 0 0 1 7.61.32 93 93 0 0 1 12.25 8.75c3 2.62 2.71 4.28-.88 5.92L10.11 74.37c-2.23 1-4.41 2.16-6.65 3.14S.11 77.67 0 75.35s0-4.42 0-6.62z" fill="#fb941c"></path><path d="M95 91.9c0-14.71.08-29.42-.07-44.13 0-3.46 1.15-5.4 4.39-6.66 4.21-1.65 8.22-3.79 12.36-5.65 3.4-1.52 4-1.13 4 2.71v26.85c0 20.35-.11 40.7 0 61.05 0 3.68-1.16 6-4.33 7.68-3.76 2.05-7.34 4.43-11.39 5.94-4.27 1.6-5 1.18-5.06-3.3.02-14.83.1-29.66.1-44.49zM63.4 121.72c0-19.59.07-39.17-.06-58.75 0-3.85 1.25-6.15 4.92-7.55 3.88-1.49 7.5-3.63 11.31-5.31s5.23-.7 5 3.32C84.22 59.3 84 65.17 84 71.05v63.26c0 1.71 0 3.43.19 5.14.42 4.19-.25 5.12-4.36 5.24-4.27.13-8.49.9-12.82.16-2.59-.45-3.66-1.46-3.64-4 .07-6.38.03-12.76.03-19.13zM53 103.07v34.55c0 4.7-.58 5-4.85 3.46-4.52-1.64-8.67-4-13-6.09a5.49 5.49 0 0 1-3.47-5.47q.09-26.46 0-52.93a6 6 0 0 1 3.86-6C39 69 42.46 67.43 45.86 65.76 52.23 62.63 53 63 53 70v33.07zM126.65 73.62V33.18v-2.21c.06-1.08-.07-2.38 1.28-2.75s2 .72 2.63 1.61a73.47 73.47 0 0 1 9.89 18.38c7.25 21 5.3 41.21-5.2 60.65a78 78 0 0 1-5.6 8.15c-.54.76-1.15 1.8-2.33 1.39s-.89-1.54-.89-2.51V73.62z" fill="#303e8f"></path><path d="M88 3.18c-.41 1.61-1.83 1.95-3 2.5Q67 14 48.93 22.26c-12 5.51-24 11.05-36.06 16.53-1.24.57-2.76 2-4 .51-.92-1.12.24-2.53.94-3.66C20.29 18.76 34.9 7.45 54.2 2.36a71.66 71.66 0 0 1 31.21-1.18c1.2.22 2.49.38 2.59 2z" fill="#fb941c"></path><path d="M21.38 100.74v18.38c0 .93.32 2.16-.8 2.62s-1.76-.6-2.41-1.27C9.65 111.67 4.77 101 2 89.23a3 3 0 0 1 1.79-3.91C8.3 83.2 12.82 81 17.4 79c2.6-1.17 4-.24 4 2.67q-.03 9.5-.02 19.07z" fill="#303e8f"></path></svg></svg> <!----></g></g> <g transform="translate(67,1.415018081665039)"><g data-gra="path-name" fill-rule="" class="tp-name iconsvg-namesvg" transform="translate(0,0)"><g transform="scale(1)"><g><path d="M19.69-36.91L19.69-36.91 24.79-34.8Q24.79-34.8 24.26-34.45L24.26-34.45Q23.2-33.75 23.03-33.22L23.03-33.22Q22.5-29.88 22.15-23.73L22.15-23.73 35.86-23.73 38.14-26.54 42.54-23.03 42.36-22.5 23.91-22.5Q25.49-12.13 30.76-6.33L30.76-6.33Q35.86-1.05 44.12 0.88L44.12 0.88 44.12 1.23Q40.78 1.05 38.67 3.16L38.67 3.16Q38.32 3.52 38.14 3.52L38.14 3.52Q30.41-1.23 27.25-6.86L27.25-6.86Q23.91-13.01 22.85-22.5L22.85-22.5 22.15-22.5Q21.8-17.4 20.39-11.6L20.39-11.6Q17.05-0.7 2.11 5.45L2.11 5.45 1.93 4.75Q11.78-0.7 15.47-7.03L15.47-7.03Q18.98-13.71 19.16-22.5L19.16-22.5 4.22-22.5 2.81-21.97 1.93-23.73 19.34-23.73Q19.69-31.64 19.69-36.91ZM70.14-36.21L70.14-36.21Q74.71-34.28 73.83-34.1L73.83-34.1Q73.83-34.1 73.48-33.93L73.48-33.93Q72.25-33.4 71.89-32.87L71.89-32.87Q71.72-31.82 69.79-28.48L69.79-28.48 79.98-28.48 82.27-31.11 85.96-27.6 85.96-27.42 69.43-27.42 64.51-17.58 71.19-17.58 71.19-24.43Q75.59-23.2 75.23-23.03L75.23-23.03Q75.23-22.85 74.53-22.32L74.53-22.32Q73.83-21.8 73.83-21.62L73.83-21.62 73.83-17.58 78.4-17.58 80.51-20.04 84.2-16.88 84.02-16.7 73.83-16.7 73.83-9.84 80.68-9.84 82.79-12.48 86.66-9.14 86.66-8.79 73.83-8.79 74-1.23Q72.6 0 71.02-0.18L71.02-0.18 71.19-8.79 60.47-8.79 59.06-8.61 58.36-9.84 71.19-9.84 71.19-16.7 64.51-16.7Q64.34-16.7 63.46-15.82L63.46-15.82Q62.75-15.29 62.75-15.29L62.75-15.29Q60.64-16.88 60.29-17.58L60.29-17.58Q60.29-17.75 61-18.11L61-18.11Q61.88-18.63 62.05-18.81L62.05-18.81Q63.81-21.45 66.45-27.42L66.45-27.42 60.82-27.42 59.24-27.42 58.54-28.48 66.8-28.48Q68.38-31.29 70.14-36.21ZM50.45-33.4L50.63-33.57Q55.9-31.29 57.13-28.3L57.13-28.3Q56.78-25.31 54.49-24.96L54.49-24.96Q54.14-24.96 53.61-26.72L53.61-26.72Q52.56-30.94 50.45-33.4L50.45-33.4ZM54.49-20.39L54.49-20.39Q56.07-19.51 57.83-17.93L57.83-17.93Q57.83-17.93 57.13-17.23L57.13-17.23Q56.07-16.35 56.07-16.17L56.07-16.17 55.9-1.93Q59.77 1.05 63.11 1.41L63.11 1.41Q67.15 1.76 75.06 1.58L75.06 1.58Q82.79 1.41 87.89 0.88L87.89 0.88 88.07 1.23Q84.02 2.64 83.32 4.57L83.32 4.57Q67.15 4.57 62.58 3.69L62.58 3.69Q60.29 3.16 56.25 0L56.25 0Q54.84-1.23 54.49-1.23L54.49-1.23Q53.61-1.05 50.27 2.81L50.27 2.81Q49.04 4.39 48.87 4.39L48.87 4.39Q47.64 3.34 46.58 1.93L46.58 1.93Q46.58 1.76 50.27-0.35L50.27-0.35Q53.26-1.93 53.26-2.11L53.26-2.11 53.44-17.4 48.52-17.4 47.29-17.05 46.58-18.46 52.91-18.46Q53.26-18.46 54.14-19.86L54.14-19.86Q54.49-20.39 54.49-20.39ZM107.23-36.39L107.23-36.39 111.97-34.1Q111.8-33.75 111.27-33.57L111.27-33.57Q110.21-33.22 110.04-32.34L110.04-32.34Q109.86-31.46 109.51-29.53L109.51-29.53Q108.98-27.6 108.98-27.25L108.98-27.25 125.51-27.25 127.97-29.88 131.66-26.54 131.48-26.19 108.63-26.19Q107.93-22.32 106.35-18.46L106.35-18.46 119.88-18.46 121.82-20.57 125.51-17.58 123.05-16.17Q123.05-16 122.7-15.47L122.7-15.47Q120.23-9.49 117.07-4.92L117.07-4.92Q123.22-0.35 132.19 0.88L132.19 0.88 132.19 1.23Q129.38 1.58 128.5 2.99L128.5 2.99Q128.14 3.52 127.97 3.52L127.97 3.52Q120.94 1.23 115.49-3.52L115.49-3.52Q111.27 0.18 106.17 2.11L106.17 2.11Q101.6 4.04 96.15 4.92L96.15 4.92 96.15 4.39Q100.02 3.69 105.12 1.05L105.12 1.05Q111.09-2.11 113.91-5.27L113.91-5.27Q110.21-10.2 108.28-17.4L108.28-17.4 106-17.4Q100.9-3.69 91.23 3.69L91.23 3.69 90.88 3.34Q95.45-1.41 99.67-8.44L99.67-8.44Q100.02-9.14 100.2-9.49L100.2-9.49Q104.94-19.86 105.82-26.19L105.82-26.19 94.75-26.19 92.81-25.66 92.11-27.25 106-27.25Q106.52-28.48 107.23-36.39ZM120.23-17.4L109.16-17.4Q111.97-9.84 115.14-6.68L115.14-6.68Q118.65-11.25 120.23-17.4L120.23-17.4ZM151.17-36.39L151.17-36.39 155.04-33.93Q155.04-33.75 154.34-33.57L154.34-33.57Q153.46-33.4 153.28-33.05L153.28-33.05Q152.23-32.34 151.17-30.41L151.17-30.41 161.37-30.41 163.65-32.7 167.52-29.53Q167.52-29.36 166.64-29.18L166.64-29.18Q165.06-28.83 164.36-28.3L164.36-28.3Q163.13-27.42 158.91-22.85L158.91-22.85Q159.26-23.2 158.38-22.32L158.38-22.32 167.87-22.32 169.8-24.79 173.67-21.8 171.56-20.39Q171.74-13.01 172.09-3.69L172.09-3.69Q171.21-2.46 168.93-2.46L168.93-2.46 168.93-4.39 147.3-4.39 147.3-2.29Q146.25-1.58 144.32-1.41L144.32-1.41Q144.32-3.69 144.49-7.56L144.49-7.56Q144.67-16.52 144.67-22.85L144.67-22.85Q140.8-19.16 136.76-16.52L136.76-16.52 136.41-16.88Q145.72-25.14 151.17-36.39ZM157.5-22.32L161.54-29.36 150.47-29.36Q147.66-25.84 145.72-23.91L145.72-23.91 147.83-22.32 157.5-22.32ZM156.62-13.89L156.62-21.45 149.77-21.45Q146.95-21.8 147.3-19.34L147.3-19.34 147.3-13.89 156.62-13.89ZM168.93-21.45L159.26-21.45 159.26-13.89 168.93-13.89 168.93-21.45ZM156.62-5.45L156.62-13.01 147.3-13.01 147.3-5.45 156.62-5.45ZM168.93-13.01L159.26-13.01 159.26-5.45 168.93-5.45 168.93-13.01ZM172.09 1.41L174.55-1.58 178.59 2.29 178.42 2.46 140.45 2.46 138.52 2.81 137.81 1.41 172.09 1.41Z" transform="translate(-1.9300000667572021, 36.90999984741211)"></path></g> <!----> <!----> <!----> <!----> <!----> <!----> <!----></g></g> <g data-gra="path-slogan" fill-rule="" class="tp-slogan iconsvg-slogansvg" fill="#333" transform="translate(5,48.36000061035156)"><rect x="0" height="1" y="3.9750003814697266" width="36.73500442504883"></rect> <rect height="1" y="3.9750003814697266" width="36.73500442504883" x="129.92499923706055"></rect> <g transform="translate(39.73500442504883,0)"><g transform="scale(1)"><path d="M4.41 0L0.94 0L0.94-8.58L4.45-8.58Q7.92-8.39 8.06-4.41L8.06-4.41Q7.88-0.09 4.41 0L4.41 0ZM4.27-7.64L2.11-7.64L2.11-0.98L4.36-0.98Q6.80-1.13 6.89-4.31L6.89-4.31Q6.84-7.55 4.27-7.64L4.27-7.64ZM15.19 0L14.34-2.48L10.88-2.48L9.98 0L8.81 0L12.05-8.58L13.36-8.58L16.45 0L15.19 0ZM12.61-7.31L11.25-3.52L13.92-3.52L12.66-7.31L12.61-7.31ZM17.48-8.58L18.66-8.58L18.66-1.03L23.02-1.03L23.02 0L17.48 0L17.48-8.58ZM24.33-8.58L25.50-8.58L25.50 0L24.33 0L24.33-8.58ZM33.14 0L32.30-2.48L28.83-2.48L27.94 0L26.77 0L30-8.58L31.31-8.58L34.41 0L33.14 0ZM30.56-7.31L29.20-3.52L31.88-3.52L30.61-7.31L30.56-7.31ZM36.84-8.58L41.16-1.64L41.16-8.58L42.28-8.58L42.28 0L40.97 0L36.61-6.94L36.56-6.94L36.56 0L35.44 0L35.44-8.58L36.84-8.58ZM54.33-8.58L51.09-3.47L51.09 0L49.92 0L49.92-3.47L46.69-8.58L48.05-8.58L50.48-4.45L52.97-8.58L54.33-8.58ZM62.16-4.27L62.16-4.27Q61.97-7.64 59.16-7.83L59.16-7.83Q56.30-7.69 56.16-4.27L56.16-4.27Q56.30-0.94 59.16-0.80L59.16-0.80Q61.97-0.98 62.16-4.27ZM63.33-4.27L63.33-4.27Q63.05 0 59.16 0.14L59.16 0.14Q55.22 0 54.94-4.27L54.94-4.27Q55.17-8.72 59.16-8.81L59.16-8.81Q63.05-8.67 63.33-4.27ZM70.36-3.19L70.36-8.58L71.53-8.58L71.53-3.05Q71.39 0.05 68.02 0.14L68.02 0.14Q64.88 0.05 64.73-2.86L64.73-2.86L64.73-8.58L65.91-8.58L65.91-3.19Q65.95-0.84 68.06-0.80L68.06-0.80Q70.36-0.84 70.36-3.19L70.36-3.19ZM80.25-8.58L77.02-3.47L77.02 0L75.84 0L75.84-3.47L72.61-8.58L73.97-8.58L76.41-4.45L78.89-8.58L80.25-8.58ZM86.95-3.19L86.95-8.58L88.13-8.58L88.13-3.05Q87.98 0.05 84.61 0.14L84.61 0.14Q81.47 0.05 81.33-2.86L81.33-2.86L81.33-8.58L82.50-8.58L82.50-3.19Q82.55-0.84 84.66-0.80L84.66-0.80Q86.95-0.84 86.95-3.19L86.95-3.19Z" transform="translate(-0.9375, 8.8125)"></path></g></g></g></g></g><defs v-gra="od"></defs></svg>